# xmcd CD database file
#
# Track frame offsets:
#	150
#	18150
#	34495
#
# Disc length: 498 seconds
#
# Revision: 0
# Processed by: cddbd v1.5PL3 Copyright (c) Steve Scherf et al.
# Submitted via: CDex 1.50
#
DISCID=1c01f003
DTITLE=中山忍 - 涙、止まれ!
DYEAR=1989
DGENRE=JPop
TTITLE0=涙、止まれ!
TTITLE1=夢と風の季節
TTITLE2=忍からあなたへのメッセージ
EXTD=YEAR: 1989/02/01
EXTT0=
EXTT1=
EXTT2=
PLAYORDER=
